# AST/ASF file generated using VICON BodyLanguage
# -----------------------------------------------
:version 1.10
:name VICON
:units
  mass 1.0
  length 0.45
  angle deg
:documentation
   .ast/.asf automatically generated from VICON data using
   VICON BodyBuilder and BodyLanguage model FoxedUp or BRILLIANT.MOD
:root
   order TX TY TZ RX RY RZ
   axis XYZ
   position 0 0 0  
   orientation 0 0 0 
:bonedata
  begin
     id 1 
     name lhipjoint
     direction 0.521452 -0.77106 0.36545 
     length 2.0933 
     axis 0 0 0  XYZ
  end
  begin
     id 2 
     name lfemur
     direction 0.34202 -0.939693 0  
     length 6.83441  
     axis 0 0 20  XYZ
    dof rx ry rz
    limits (-160.0 20.0)
           (-70.0 70.0)
           (-60.0 70.0)
  end
  begin
     id 3 
     name ltibia
     direction 0.34202 -0.939693 0   
     length 7.28749   
     axis 0 0 20   XYZ
    dof rx
    limits (-10.0 170.0)
  end
  begin
     id 4 
     name lfoot
     direction 0.100608 -0.276418 0.955757   
     length 1.52195   
     axis -90 7.62852e-016 20   XYZ
    dof rx rz
    limits (-45.0 90.0)
           (-70.0 20.0)
  end
  begin
     id 5 
     name ltoes
     direction 1.53558e-011 -4.21907e-011 1   
     length 0.770459   
     axis -90 7.62852e-016 20   XYZ
    dof rx
    limits (-90.0 20.0)
  end
  begin
     id 6 
     name rhipjoint
     direction -0.488071 -0.788702 0.373812   
     length 2.04648  
     axis 0 0 0  XYZ 
  end
  begin
     id 7 
     name rfemur
     direction -0.34202 -0.939693 0   
     length 6.92583   
     axis 0 0 -20   XYZ
    dof rx ry rz
    limits (-160.0 20.0)
           (-70.0 70.0)
           (-70.0 60.0)
  end
  begin
     id 8 
     name rtibia
     direction -0.34202 -0.939693 0   
     length 7.41043   
     axis 0 0 -20   XYZ
    dof rx
    limits (-10.0 170.0)
 end
 begin
     id 9 
     name rfoot
     direction -0.0784433 -0.215521 0.973343   
     length 1.67708  
     axis -90 -7.62852e-016 -20   XYZ
    dof rx rz
    limits (-45.0 90.0)
           (-20.0 70.0)
  end
  begin
     id 10 
     name rtoes
     direction -1.53551e-011 -4.21842e-011 1   
     length 0.849787   
     axis -90 -7.62852e-016 -20   XYZ
    dof rx
    limits (-90.0 20.0)
  end
  begin
     id 11 
     name lowerback
     direction -0.0122332 0.997575 -0.0685192   
     length 1.98724   
     axis 0 0 0   XYZ
    dof rx ry rz
    limits (-20.0 45.0)
           (-30.0 30.0)
           (-30.0 30.0)
  end
  begin
     id 12 
     name upperback
     direction 0.0182347 0.999724 -0.0148421   
     length 1.99029   
     axis 0 0 0   XYZ
    dof rx ry rz
    limits (-20.0 45.0)
           (-30.0 30.0)
           (-30.0 30.0)
  end
  begin
     id 13 
     name thorax
     direction 0.0242908 0.99956 0.0170184   
     length 1.99573   
     axis 0 0 0   XYZ
    dof rx ry rz
    limits (-20.0 45.0)
           (-30.0 30.0)
           (-30.0 30.0)
  end
  begin
     id 14 
     name lowerneck
     direction 0.0654488 0.985533 0.156338   
     length 1.4285   
     axis 0 0 0   XYZ
    dof rx ry rz
    limits (-20.0 45.0)
           (-30.0 30.0)
           (-30.0 30.0)
  end
  begin
     id 15 
     name upperneck
     direction -0.02953 0.998556 -0.0448842   
     length 1.44709   
     axis 0 0 0   XYZ
    dof rx ry rz
    limits (-20.0 45.0)
           (-30.0 30.0)
           (-30.0 30.0)
  end
  begin
     id 16
     name head
     direction -0.0155588 0.999386 -0.0314063  
     length 1.44689  
     axis 0 0 0   XYZ
    dof rx ry rz
    limits (-20.0 45.0)
           (-30.0 30.0)
           (-30.0 30.0)
  end
  begin
     id 17 
     name lclavicle
     direction 0.968229 0.236071 -0.0824755  
     length 3.60593  
     axis 0 0 0   XYZ
    dof ry rz
    limits (-20.0 10.0)
           (0.0 20.0)
  end
  begin
     id 18 
     name lhumerus
     direction 1 -4.48968e-011 7.8138e-029   
     length 5.06035   
     axis 180 -30 -90   XYZ
    dof rx ry rz
    limits (-60.0 90.0)
           (-90.0 90.0)
           (-90.0 90.0)
  end
  begin
     id 19
     name lradius
     direction 1 -4.48967e-011 9.02887e-028   
     length 3.1478   
     axis 180 -30 -90   XYZ
    dof rx
    limits (-10.0 170.0)
  end
  begin
     id 20
     name lwrist
     direction 1 -4.48961e-011 7.20928e-028   
     length 1.5739   
     axis -5.52449e-016 90 90   XYZ
    dof ry
    limits (-180.0 0.0)
 end
  begin
     id 21 
     name lhand
     direction 1 -4.48972e-011 1.44186e-027   
     length 0.606747   
     axis -9.20027e-016 90 90   XYZ
    dof rx rz
    limits (-90.0 90.0)
           (-45.0 45.0)
  end
  begin
     id 22 
     name lfingers
     direction 1 -4.48943e-011 2.88371e-027   
     length 0.489175   
     axis -1.84005e-015 90 90   XYZ
    dof rx
    limits (0.0 90.0)
  end
  begin
     id 23
     name lthumb
     direction 0.707107 -6.34917e-011 0.707107   
     length 0.70236   
     axis -90 45 2.85299e-015   XYZ
    dof rx rz
    limits (-45.0 45.0)
           (-45.0 45.0)
  end
  begin
     id 24 
     name rclavicle
     direction -0.978165 0.207816 0.0022268   
     length 3.35425  
     axis 0 0 0   XYZ 
    dof ry rz
    limits (-10.0 20.0)
           (-20.0 0.0)
  end
  begin
     id 25 
     name rhumerus
     direction -1 -4.48964e-011 -4.02159e-027  
     length 5.12273   
     axis 180 30 90   XYZ
    dof rx ry rz
    limits (-90.0 60.0)
           (-90.0 90.0)
           (-90.0 90.0)
  end
  begin
     id 26 
     name rradius
     direction -1 -4.48966e-011 1.62746e-027   
     length 3.422   
     axis 180 30 90   XYZ
    dof rx
    limits (-10.0 170.0)
  end
  begin
     id 27 
     name rwrist
     direction -1 -4.4896e-011 7.20928e-028   
     length 1.711   
     axis -5.52449e-016 -90 -90   XYZ
    dof ry
    limits (-180.0 0.0)
  end
  begin
     id 28
     name rhand
     direction -1 -4.48979e-011 1.44186e-027   
     length 0.704599   
     axis -9.20027e-016 -90 -90   XYZ
    dof rx rz
    limits (-90.0 90.0)
           (-45.0 45.0)
  end
  begin
     id 29
     name rfingers
     direction -1 -4.48962e-011 2.88371e-027   
     length 0.568066   
     axis -1.84005e-015 -90 -90   XYZ
    dof rx
    limits (0.0 90.0)
  end
  begin
     id 30
     name rthumb
     direction -0.707107 -6.34949e-011 0.707107   
     length 0.815633   
     axis -90 -45 -2.85299e-015   XYZ
    dof rx rz
    limits (-45.0 45.0)
           (-45.0 45.0)
  end
:hierarchy
  begin
    root lhipjoint rhipjoint lowerback
    lhipjoint lfemur
    lfemur ltibia
    ltibia lfoot
    lfoot ltoes
    rhipjoint rfemur
    rfemur rtibia
    rtibia rfoot
    rfoot rtoes
    lowerback upperback
    upperback thorax
    thorax lowerneck lclavicle rclavicle
    lowerneck upperneck
    upperneck head
    lclavicle lhumerus
    lhumerus lradius
    lradius lwrist
    lwrist lhand lthumb
    lhand lfingers
    rclavicle rhumerus
    rhumerus rradius
    rradius rwrist
    rwrist rhand rthumb
    rhand rfingers
  end

#!OML:ASF E:\id_vita\Project 1\Capture day 1\Session 1\Male1.ASF
:FULLY-SPECIFIED
:DEGREES
687
root -23.1929 15.9165 -2.2379 13.3112 79.2261 7.91091
lowerback -4.34514 -3.63889 -6.3436
upperback -0.930549 -4.58335 1.58342
thorax 2.09828 -2.33381 4.89136
lowerneck 1.08611 -12.0969 -10.3396
upperneck -1.16133 -16.2853 10.1233
head 1.15626 -8.15153 4.28556
rclavicle 6.8208e-014 2.38542e-015
rhumerus -29.4811 -8.60082 -81.357
rradius 18.5783
rwrist 10.9624
rhand -19.5409 37.1002
rfingers 7.12502
rthumb 6.78299 7.2289
lclavicle 6.8208e-014 2.38542e-015
lhumerus -26.5744 22.6012 84.8266
lradius 12.5734
lwrist -15.8869
lhand -12.2435 44.1887
lfingers 7.12502
lthumb 13.8223 73.7095
rfemur -8.99083 9.65112 6.47928
rtibia 18.7039
rfoot -13.3798 -11.9152
rtoes -14.0323
lfemur -11.7505 4.04927 -23.2213
ltibia 30.7168
lfoot -24.962 14.373
ltoes -1.32307
688
root -23.188 15.9102 -2.28136 14.8054 78.8027 9.39258
lowerback -4.26182 -3.53587 -6.46518
upperback -0.824536 -4.44042 1.3905
thorax 2.13625 -2.26661 4.77163
lowerneck 1.06547 -12.0454 -10.1728
upperneck -1.30745 -16.2035 10.1419
head 1.09672 -8.11106 4.27735
rclavicle -3.52719e-014 1.27222e-014
rhumerus -29.5441 -8.37066 -81.4022
rradius 18.7248
rwrist 10.708
rhand -19.4103 37.1893
rfingers 7.12502
rthumb 6.90905 7.32201
lclavicle -3.52719e-014 1.27222e-014
lhumerus -26.198 21.91 85.072
lradius 12.5049
lwrist -15.4599
lhand -12.4384 43.7543
lfingers 7.12502
lthumb 13.6345 73.2878
rfemur -9.49411 10.0222 5.88286
rtibia 19.3179
rfoot -13.5073 -11.909
rtoes -13.028
lfemur -11.7757 4.2885 -23.8044
ltibia 30.7093
lfoot -25.2305 14.2802
ltoes 0.0521516
689
root -23.1799 15.896 -2.3211 16.7994 78.7506 11.5524
lowerback -4.00472 -3.65947 -6.73709
upperback -0.697116 -4.60653 1.25793
thorax 2.15689 -2.3557 4.78341
lowerneck 0.936723 -11.9138 -10.1614
upperneck -1.31858 -16.0144 10.0947
head 1.09027 -8.01344 4.2654
rclavicle 2.31398e-014 -7.55382e-015
rhumerus -29.5216 -7.95925 -81.4469
rradius 18.7589
rwrist 10.5784
rhand -19.2676 37.2445
rfingers 7.12502
rthumb 7.04687 7.38179
lclavicle 2.31398e-014 -7.55382e-015
lhumerus -25.9727 22.309 84.9667
lradius 12.3773
lwrist -15.7635
lhand -12.472 43.5183
lfingers 7.12502
lthumb 13.6021 73.054
rfemur -9.6887 10.3807 5.3339
rtibia 20.0526
rfoot -13.5981 -12.3673
rtoes -12.0286
lfemur -11.6198 4.39843 -24.3837
ltibia 30.7117
lfoot -25.3566 14.0559
ltoes 0.122154
690
root -23.1736 15.8852 -2.35698 16.1421 78.3006 10.9111
lowerback -3.80162 -3.64872 -6.7141
upperback -0.667255 -4.60973 1.33965
thorax 2.07957 -2.35662 4.86722
lowerneck 0.975373 -11.7423 -10.2724
upperneck -1.39629 -15.7843 10.0785
head 1.04558 -7.8996 4.29499
rclavicle 8.40486e-014 1.35174e-014
rhumerus -29.5859 -7.31128 -81.479
rradius 18.7719
rwrist 10.3258
rhand -19.8 37.1901
rfingers 7.12502
rthumb 6.53292 7.31082
lclavicle 8.40486e-014 1.35174e-014
lhumerus -25.9742 22.6696 84.9453
lradius 12.4651
lwrist -16.1225
lhand -12.2206 43.8076
lfingers 7.12502
lthumb 13.8445 73.3268
rfemur -10.2675 10.8582 5.25822
rtibia 20.9551
rfoot -13.7483 -12.5995
rtoes -11.8776
lfemur -11.5535 4.80667 -24.4998
ltibia 30.6856
lfoot -25.4245 14.0439
ltoes 0.0753545
691
root -23.166 15.8807 -2.39755 15.7604 77.9896 10.4781
lowerback -3.64167 -3.64588 -6.65379
upperback -0.685098 -4.62129 1.37968
thorax 1.97161 -2.35847 4.88527
lowerneck 1.30987 -11.5909 -10.109
upperneck -1.72398 -15.5879 9.97239
head 0.854551 -7.81107 4.2878
rclavicle 5.889e-015 -8.74653e-015
rhumerus -29.7642 -6.58935 -81.5628
rradius 18.8288
rwrist 9.71187
rhand -20.1427 37.1334
rfingers 7.12502
rthumb 6.20205 7.24417
lclavicle 5.889e-015 -8.74653e-015
lhumerus -25.9729 22.9203 84.8709
lradius 12.5224
lwrist -16.6743
lhand -11.5996 44.2983
lfingers 7.12502
lthumb 14.4428 73.7757
rfemur -10.9546 11.2196 5.15564
rtibia 21.9885
rfoot -14.1442 -12.6406
rtoes -10.3248
lfemur -11.5924 5.19446 -24.6391
ltibia 30.6565
lfoot -25.5175 13.9536
ltoes 0.206073
692
root -23.1564 15.8779 -2.42865 16.9048 77.4942 11.5636
lowerback -3.62486 -3.5717 -7.02386
upperback -0.565562 -4.50562 1.32574
thorax 2.09474 -2.31107 5.04147
lowerneck 0.831855 -11.599 -9.83708
upperneck -1.43607 -15.5714 9.15959
head 1.02771 -7.79525 4.42119
rclavicle -3.41785e-014 8.15017e-015
rhumerus -29.6092 -6.45236 -81.4075
rradius 18.6583
rwrist 9.53903
rhand -20.0981 37.2364
rfingers 7.12502
rthumb 6.24511 7.34848
lclavicle -3.41785e-014 8.15017e-015
lhumerus -25.6283 24.5014 84.4015
lradius 11.9516
lwrist -18.4038
lhand -11.7385 43.7578
lfingers 7.12502
lthumb 14.309 73.2448
rfemur -11.7757 11.6537 4.66906
rtibia 23.1643
rfoot -14.4906 -12.6004
rtoes -8.58351
lfemur -11.6499 5.79941 -25.142
ltibia 30.6194
lfoot -25.6442 13.8095
ltoes 0.0818918
693
root -23.1486 15.8708 -2.4677 18.1386 77.1205 12.7273
lowerback -3.53847 -3.62151 -7.26921
upperback -0.487662 -4.56587 1.25998
thorax 2.14958 -2.34721 5.10796
lowerneck 0.192528 -11.4849 -9.63531
upperneck -0.964555 -15.3802 8.72993
head 1.21721 -7.68631 4.18997
rclavicle -3.13956e-014 -1.23246e-014
rhumerus -29.571 -6.68961 -81.1517
rradius 18.5944
rwrist 10.0194
rhand -20.311 36.9097
rfingers 7.12502
rthumb 6.03955 7.01582
lclavicle -3.13956e-014 -1.23246e-014
lhumerus -25.3478 24.3455 84.549
lradius 11.8254
lwrist -17.8993
lhand -12.2477 43.195
lfingers 7.12502
lthumb 13.8183 72.716
rfemur -12.6505 11.7197 4.18405
rtibia 24.4521
rfoot -14.6748 -12.5873
rtoes -7.88159
lfemur -11.7463 6.07219 -25.6998
ltibia 30.5841
lfoot -25.7214 13.8666
ltoes -0.0857384
694
root -23.1415 15.8585 -2.49352 18.8592 76.6668 13.5813
lowerback -3.28045 -3.64888 -7.66628
upperback -0.37659 -4.60439 1.21295
thorax 2.15355 -2.37369 5.29022
lowerneck 0.287017 -11.2362 -9.76185
upperneck -1.29268 -15.0422 8.94415
head 1.09034 -7.51866 4.32289
rclavicle 2.91344e-014 -1.72943e-014
rhumerus -29.7918 -6.80513 -81.0366
rradius 18.8854
rwrist 10.351
rhand -21.0285 36.1841
rfingers 7.12502
rthumb 5.3468 6.27153
lclavicle 2.91344e-014 -1.72943e-014
lhumerus -25.2222 24.7805 84.3934
lradius 11.9474
lwrist -18.4154
lhand -11.2207 44.0531
lfingers 7.12502
lthumb 14.8079 73.504
rfemur -13.3609 12.1851 3.8284
rtibia 25.8344
rfoot -14.7239 -12.8946
rtoes -6.99308
lfemur -11.6007 6.65255 -26.1243
ltibia 30.5659
lfoot -25.8936 13.7132
ltoes -0.203005
695
root -23.1353 15.8461 -2.53274 19.8433 76.549 14.7026
lowerback -2.91866 -3.74373 -7.82272
upperback -0.292125 -4.75043 1.07831
thorax 2.06166 -2.44643 5.24654
lowerneck 0.307625 -11.0295 -9.53086
upperneck -1.48396 -14.7552 8.90064
head 0.971158 -7.37556 4.29234
rclavicle -6.53505e-015 1.98785e-015
rhumerus -30.0443 -6.68672 -81.0845
rradius 19.1604
rwrist 10.3294
rhand -21.3373 35.7361
rfingers 7.12502
rthumb 5.0487 5.81628
lclavicle -6.53505e-015 1.98785e-015
lhumerus -25.1054 24.7544 84.3441
lradius 11.9842
lwrist -18.1198
lhand -11.4222 44.3525
lfingers 7.12502
lthumb 14.6137 73.8176
rfemur -13.9955 12.3171 3.50449
rtibia 27.2856
rfoot -14.7651 -13.3156
rtoes -6.11923
lfemur -11.5057 6.93682 -26.5423
ltibia 30.5931
lfoot -26.0438 13.4226
ltoes 0.206857
696
root -23.1303 15.836 -2.55668 19.8982 75.9754 14.6409
lowerback -2.89484 -3.65436 -8.04423
upperback -0.203883 -4.62067 0.983086
thorax 2.13038 -2.3882 5.27843
lowerneck -0.265322 -10.9176 -8.92846
upperneck -1.06617 -14.5715 8.41256
head 1.09621 -7.273 3.97981
rclavicle -3.69491e-014 -1.63003e-014
rhumerus -30.2305 -6.45439 -81.2311
rradius 19.4247
rwrist 9.99804
rhand -21.5452 35.216
rfingers 7.12502
rthumb 4.84789 5.29148
lclavicle -3.69491e-014 -1.63003e-014
lhumerus -24.8433 24.739 84.249
lradius 12.0292
lwrist -18.2415
lhand -11.2102 44.4921
lfingers 7.12502
lthumb 14.818 73.9423
rfemur -15.0656 12.7023 3.30422
rtibia 28.7995
rfoot -14.6599 -13.7686
rtoes -5.69492
lfemur -11.6379 7.76615 -26.8075
ltibia 30.6008
lfoot -26.2612 13.1211
ltoes 0.487602
697
root -23.1236 15.8182 -2.5877 21.5312 75.761 16.2887
lowerback -2.66393 -3.81346 -8.61345
upperback -0.224641 -4.83618 0.990493
thorax 2.06033 -2.49771 5.60426
lowerneck -0.229399 -10.6309 -8.94535
upperneck -1.07583 -14.1878 8.28107
head 1.04081 -7.08221 3.96217
rclavicle 4.0639e-014 7.55382e-015
rhumerus -30.4983 -5.72177 -81.2762
rradius 19.6519
rwrist 9.17169
rhand -22.2991 34.8284
rfingers 7.12502
rthumb 4.11991 4.88854
lclavicle 4.0639e-014 7.55382e-015
lhumerus -24.7597 24.5463 84.4338
lradius 12.0676
lwrist -17.7624
lhand -11.0117 44.5512
lfingers 7.12502
lthumb 15.0093 73.9872
rfemur -15.9354 12.6524 2.78147
rtibia 30.3737
rfoot -14.5474 -14.0228
rtoes -5.06947
lfemur -11.6552 8.2145 -27.3979
ltibia 30.5089
lfoot -26.2544 12.8157
ltoes 0.111007
698
root -23.1117 15.8056 -2.61568 23.0051 75.3943 17.8417
lowerback -2.51036 -3.795 -9.05861
upperback -0.0927027 -4.8032 0.823556
thorax 2.12909 -2.49104 5.68526
lowerneck -0.247441 -10.4211 -8.79794
upperneck -1.38535 -13.8913 8.35867
head 0.910344 -6.93321 3.98685
rclavicle 2.45623e-014 4.77083e-015
rhumerus -30.6663 -5.37374 -81.5206
rradius 19.9311
rwrist 7.75985
rhand -22.4116 35.1948
rfingers 7.12502
rthumb 4.01132 5.25283
lclavicle 2.45623e-014 4.77083e-015
lhumerus -24.5595 24.4545 84.4664
lradius 12.1814
lwrist -17.6666
lhand -10.8911 44.778
lfingers 7.12502
lthumb 15.1254 74.2053
rfemur -16.8142 12.7694 2.22682
rtibia 32.0203
rfoot -14.6212 -14.1014
rtoes -4.23633
lfemur -11.5126 8.49799 -28.0379
ltibia 30.2856
lfoot -26.1139 12.7324
ltoes -0.109016
699
root -23.0983 15.7967 -2.63633 24.6754 74.9813 19.7459
lowerback -2.22757 -3.81553 -9.70669
upperback 0.0680609 -4.82825 0.630979
thorax 2.18036 -2.51568 5.8553
lowerneck -0.544685 -10.1616 -8.53976
upperneck -1.29096 -13.5234 8.12975
head 0.920416 -6.74389 3.86138
rclavicle 2.07481e-014 7.15625e-015
rhumerus -30.908 -4.89498 -81.7886
rradius 20.2421
rwrist 6.60885
rhand -21.6072 36.0874
rfingers 7.12502
rthumb 4.78806 6.1615
lclavicle 2.07481e-014 7.15625e-015
lhumerus -24.3702 23.8725 84.6311
lradius 12.3576
lwrist -16.9024
lhand -10.9241 44.9331
lfingers 7.12502
lthumb 15.0936 74.3628
rfemur -17.5125 12.8491 1.65383
rtibia 33.6811
rfoot -14.6334 -14.2183
rtoes -3.62759
lfemur -11.1551 8.65279 -28.7692
ltibia 30.0226
lfoot -26.0574 12.7687
ltoes -0.0754954
700
root -23.0864 15.7879 -2.66151 26.6855 74.6552 22.0245
lowerback -1.829 -3.92689 -10.4047
upperback 0.147278 -4.99304 0.438533
thorax 2.11177 -2.60188 6.05414
lowerneck -0.951115 -9.86058 -8.30849
upperneck -0.760106 -13.1114 7.8059
head 1.08451 -6.53183 3.69244
rclavicle -2.76683e-014 1.17283e-014
rhumerus -31.1937 -5.18716 -81.5966
rradius 20.2215
rwrist 6.9894
rhand -20.9438 36.7523
rfingers 7.12502
rthumb 5.42863 6.84182
lclavicle -2.76683e-014 1.17283e-014
lhumerus -24.3512 24.1574 84.4682
lradius 12.3492
lwrist -16.9697
lhand -11.0336 44.7305
lfingers 7.12502
lthumb 14.9881 74.1681
rfemur -18.1955 12.5458 1.02961
rtibia 35.405
rfoot -14.4852 -14.2228
rtoes -2.84288
lfemur -10.735 8.67573 -29.5911
ltibia 29.6627
lfoot -25.8773 12.8547
ltoes 0.115684
701
root -23.073 15.7882 -2.68832 26.0933 74.5497 21.4374
lowerback -1.6541 -3.94107 -10.2578
upperback 0.242034 -5.03023 0.404922
thorax 2.10367 -2.622 5.94304
lowerneck -1.20889 -9.59492 -7.93749
upperneck -0.546659 -12.7485 7.67089
head 1.13004 -6.34624 3.57901
rclavicle -4.84289e-014 -2.16675e-014
rhumerus -31.3823 -5.8381 -81.4079
rradius 20.0977
rwrist 7.24082
rhand -21.6067 35.9035
rfingers 7.12502
rthumb 4.78855 5.97758
lclavicle -4.84289e-014 -2.16675e-014
lhumerus -24.1777 24.6785 84.1605
lradius 12.1302
lwrist -17.536
lhand -11.0546 44.4709
lfingers 7.12502
lthumb 14.9679 73.91
rfemur -19.0916 12.4518 1.27137
rtibia 37.1506
rfoot -14.8086 -14.1822
rtoes -0.462218
lfemur -10.5048 9.2151 -29.557
ltibia 29.229
lfoot -25.7822 12.5006
ltoes 0.0759764
